<?xml version="1.0" standalone="no"?><!DOCTYPE svg PUBLIC "-//W3C//DTD SVG 1.1//EN" "http://www.w3.org/Graphics/SVG/1.1/DTD/svg11.dtd"><svg t="1782454133445" class="icon" viewBox="0 0 1024 1024" version="1.1" xmlns="http://www.w3.org/2000/svg" p-id="14721" width="256" height="256" xmlns:xlink="http://www.w3.org/1999/xlink"><path d="M512 0C230.4 0 0 230.4 0 512s230.4 512 512 512 512-230.4 512-512-230.4-512-512-512z" fill="#CF3834" p-id="14722"></path><path d="M428.8 345.6c-12.8-6.4-25.6-12.8-32-19.2-6.4 0-12.8-6.4-19.2-12.8-12.8-6.4-25.6-12.8-32-19.2-6.4 0-12.8-6.4-19.2-6.4l-12.8 12.8 19.2 32 358.4 422.4L768 633.6c6.4 6.4-339.2-288-339.2-288z m115.2-64l83.2 57.6 76.8 51.2 19.2-83.2L633.6 256l-89.6 25.6zM313.6 505.6l108.8 147.2-128 25.6-32-76.8 32-115.2 19.2 19.2z" fill="#FFFFFF" p-id="14723"></path></svg>